<svg xmlns="http://www.w3.org/2000/svg" width="200" height="260" viewBox="0 0 200 260">
  <!-- 艾达 · 立绘（派生自 persona-ada.json portrait_prompt：银灰短发蓝瞳/白大褂/全息平板/冷色调科技感） -->
  <defs>
    <radialGradient id="ag" cx="50%" cy="32%" r="85%">
      <stop offset="0%" stop-color="#163c3f" stop-opacity="0.9"/>
      <stop offset="100%" stop-color="#081418" stop-opacity="0.97"/>
    </radialGradient>
    <linearGradient id="ahair" x1="0" y1="0" x2="0" y2="1">
      <stop offset="0%" stop-color="#c9d2d6"/>
      <stop offset="100%" stop-color="#93a2aa"/>
    </linearGradient>
    <linearGradient id="acoat" x1="0" y1="0" x2="0" y2="1">
      <stop offset="0%" stop-color="#ffffff"/>
      <stop offset="100%" stop-color="#dde6ea"/>
    </linearGradient>
  </defs>
  <rect width="200" height="260" fill="url(#ag)"/>
  <!-- 科技网格 -->
  <path d="M0 40 H200 M0 80 H200 M0 120 H200 M0 160 H200 M0 200 H200" stroke="#2ba9a0" stroke-width="0.6" opacity="0.14"/>
  <path d="M40 0 V260 M80 0 V260 M120 0 V260 M160 0 V260" stroke="#2ba9a0" stroke-width="0.6" opacity="0.1"/>
  <!-- 颈与身体 -->
  <rect x="92" y="116" width="16" height="18" fill="#f0d6c8"/>
  <!-- 白大褂 -->
  <path d="M60 260 C60 200 76 170 100 170 C124 170 140 200 140 260 Z" fill="url(#acoat)"/>
  <path d="M100 170 L84 260 L100 260 Z" fill="#eef4f6"/>
  <path d="M100 170 L116 260 L100 260 Z" fill="#e2eaee"/>
  <path d="M92 176 L74 196 L84 208 L96 190 Z" fill="#cfe0e6"/>
  <path d="M108 176 L126 196 L116 208 L104 190 Z" fill="#cfe0e6"/>
  <circle cx="88" cy="228" r="2.2" fill="#9fb3bc"/>
  <circle cx="88" cy="242" r="2.2" fill="#9fb3bc"/>
  <!-- 胸牌 -->
  <rect x="112" y="206" width="20" height="13" rx="2" fill="#2ba9a0"/>
  <rect x="114.5" y="208.5" width="15" height="8" fill="#dff7f5"/>
  <!-- 头部 -->
  <ellipse cx="100" cy="90" rx="40" ry="44" fill="#ffe6d6"/>
  <!-- 银灰短发（碎刘海） -->
  <path d="M58 92 C54 50 74 32 100 32 C126 32 146 50 142 92 C140 76 134 68 128 72 L122 58 L112 70 L100 54 L88 70 L80 60 L72 74 C64 70 60 78 58 92 Z" fill="url(#ahair)"/>
  <path d="M58 92 C60 78 64 70 72 66" fill="none" stroke="#6e7f88" stroke-width="2" opacity="0.5"/>
  <!-- 蓝瞳（平静细长眼） -->
  <ellipse cx="84" cy="95" rx="7.4" ry="8.6" fill="#2f6bd8"/>
  <ellipse cx="116" cy="95" rx="7.4" ry="8.6" fill="#2f6bd8"/>
  <circle cx="84" cy="95" r="2.8" fill="#122a5c"/>
  <circle cx="116" cy="95" r="2.8" fill="#122a5c"/>
  <circle cx="86" cy="92" r="2.2" fill="#ffffff"/>
  <circle cx="118" cy="92" r="2.2" fill="#ffffff"/>
  <path d="M76 88 C80 85 88 85 92 88" fill="none" stroke="#5d6b73" stroke-width="2.4" stroke-linecap="round"/>
  <path d="M108 88 C112 85 120 85 124 88" fill="none" stroke="#5d6b73" stroke-width="2.4" stroke-linecap="round"/>
  <!-- 平静微直线嘴 -->
  <path d="M93 115 L107 115" stroke="#c07a6a" stroke-width="2.6" stroke-linecap="round"/>
  <ellipse cx="73" cy="107" rx="6" ry="3" fill="#f2b3a2" opacity="0.5"/>
  <ellipse cx="127" cy="107" rx="6" ry="3" fill="#f2b3a2" opacity="0.5"/>
  <!-- 眼镜（科技感细框） -->
  <rect x="72" y="86" width="24" height="18" rx="5" fill="none" stroke="#2ba9a0" stroke-width="2"/>
  <rect x="104" y="86" width="24" height="18" rx="5" fill="none" stroke="#2ba9a0" stroke-width="2"/>
  <path d="M96 94 L104 94" stroke="#2ba9a0" stroke-width="2"/>
  <!-- 全息平板 -->
  <g opacity="0.92">
    <rect x="128" y="188" width="52" height="38" rx="4" fill="#0d2b31" stroke="#2ba9a0" stroke-width="2"/>
    <path d="M134 198 H170 M134 206 H162 M134 214 H174" stroke="#57e6dc" stroke-width="2"/>
    <circle cx="170" cy="198" r="2.4" fill="#aefcf6"/>
  </g>
  <path d="M132 186 C138 176 150 174 158 180 L156 190 C148 184 140 186 134 194 Z" fill="#ffe6d6"/>
</svg>
