<svg xmlns="http://www.w3.org/2000/svg" width="200" height="260" viewBox="0 0 200 260">
  <!-- 林小暖 · 立绘（派生自 persona-lumi.json portrait_prompt：暖粉色开衫/微卷长发/热可可/柔和逆光） -->
  <defs>
    <radialGradient id="glow" cx="50%" cy="30%" r="80%">
      <stop offset="0%" stop-color="#ffd9de" stop-opacity="0.9"/>
      <stop offset="100%" stop-color="#2a1c22" stop-opacity="0.95"/>
    </radialGradient>
    <linearGradient id="hair" x1="0" y1="0" x2="0" y2="1">
      <stop offset="0%" stop-color="#a8625f"/>
      <stop offset="100%" stop-color="#7e4642"/>
    </linearGradient>
    <linearGradient id="cardigan" x1="0" y1="0" x2="0" y2="1">
      <stop offset="0%" stop-color="#ffb7bc"/>
      <stop offset="100%" stop-color="#f28e96"/>
    </linearGradient>
  </defs>
  <rect width="200" height="260" fill="url(#glow)"/>
  <!-- 逆光光晕 -->
  <circle cx="100" cy="96" r="78" fill="#ffe3e8" opacity="0.18"/>
  <!-- 后发：微卷长发 -->
  <path d="M100 34 C55 34 44 78 47 116 C49 148 40 182 50 208 C60 226 78 232 84 218 L82 150 Z" fill="url(#hair)"/>
  <path d="M100 34 C145 34 156 78 153 116 C151 148 160 182 150 208 C140 226 122 232 116 218 L118 150 Z" fill="url(#hair)"/>
  <path d="M100 34 C145 34 156 78 153 116 C151 148 160 182 150 208" fill="none" stroke="#5f3230" stroke-width="2" opacity="0.5"/>
  <!-- 颈与身体 -->
  <rect x="92" y="118" width="16" height="18" fill="#f6d5c6"/>
  <!-- 暖粉开衫 -->
  <path d="M62 260 C62 200 76 168 100 168 C124 168 138 200 138 260 Z" fill="url(#cardigan)"/>
  <path d="M100 168 L88 260 L112 260 Z" fill="#ffeef0"/>
  <path d="M78 186 C74 214 74 238 76 260" fill="none" stroke="#d9737d" stroke-width="3"/>
  <path d="M122 186 C126 214 126 238 124 260" fill="none" stroke="#d9737d" stroke-width="3"/>
  <circle cx="92" cy="196" r="2.6" fill="#fff5f6"/>
  <circle cx="108" cy="196" r="2.6" fill="#fff5f6"/>
  <circle cx="92" cy="212" r="2.6" fill="#fff5f6"/>
  <circle cx="108" cy="212" r="2.6" fill="#fff5f6"/>
  <!-- 头部 -->
  <ellipse cx="100" cy="92" rx="40" ry="44" fill="#ffe9dc"/>
  <!-- 前发：空气刘海 + 微卷 -->
  <path d="M58 92 C54 52 74 34 100 34 C126 34 146 52 142 92 C138 74 130 66 122 70 C126 58 118 50 110 54 C112 44 96 40 90 50 C84 42 72 48 74 60 C64 58 60 74 58 92 Z" fill="url(#hair)"/>
  <path d="M58 92 C60 76 66 66 74 62" fill="none" stroke="#5f3230" stroke-width="2" opacity="0.45"/>
  <!-- 眼睛（温柔垂眼） -->
  <ellipse cx="84" cy="96" rx="7.5" ry="9" fill="#8c4a48"/>
  <ellipse cx="116" cy="96" rx="7.5" ry="9" fill="#8c4a48"/>
  <circle cx="86" cy="93" r="2.6" fill="#ffffff"/>
  <circle cx="118" cy="93" r="2.6" fill="#ffffff"/>
  <path d="M76 88 C80 84 88 84 92 88" fill="none" stroke="#5f3230" stroke-width="2.4" stroke-linecap="round"/>
  <path d="M108 88 C112 84 120 84 124 88" fill="none" stroke="#5f3230" stroke-width="2.4" stroke-linecap="round"/>
  <!-- 腮红与微笑 -->
  <ellipse cx="74" cy="108" rx="7" ry="4" fill="#ffb9c0" opacity="0.75"/>
  <ellipse cx="126" cy="108" rx="7" ry="4" fill="#ffb9c0" opacity="0.75"/>
  <path d="M94 114 C98 118 102 118 106 114" fill="none" stroke="#c26a66" stroke-width="2.6" stroke-linecap="round"/>
  <!-- 双手捧热可可 -->
  <path d="M64 176 C58 192 60 206 70 212 C80 218 94 216 100 208 L100 190 C88 196 74 190 72 178 Z" fill="#ffe9dc"/>
  <path d="M136 176 C142 192 140 206 130 212 C120 218 106 216 100 208 L100 190 C112 196 126 190 128 178 Z" fill="#ffe9dc"/>
  <rect x="84" y="196" width="32" height="26" rx="5" fill="#fdf6f0" stroke="#e2b7a4" stroke-width="2"/>
  <path d="M86 196 C90 186 110 186 114 196" fill="#a8685c"/>
  <path d="M92 188 C92 182 96 182 96 176" fill="none" stroke="#ffffff" stroke-width="2.4" opacity="0.55" stroke-linecap="round"/>
  <path d="M102 188 C102 182 106 182 106 176" fill="none" stroke="#ffffff" stroke-width="2.4" opacity="0.4" stroke-linecap="round"/>
</svg>
