<svg xmlns="http://www.w3.org/2000/svg" width="720" height="1280" viewBox="0 0 720 1280">
  <!-- l1/e3 开始遮罩 · RESUME 态（局中离开后续玩）· 结算三态 UI 稿（mockup，非运行时资产） -->
  <defs>
    <linearGradient id="bg" x1="0" y1="0" x2="0" y2="1">
      <stop offset="0" stop-color="#2B2152"/>
      <stop offset="1" stop-color="#0D122E"/>
    </linearGradient>
  </defs>

  <!-- 背景（Gradient_bg 同值） -->
  <rect width="720" height="1280" fill="url(#bg)"/>

  <!-- 棋盘残影（Board 72,512 · 6×6 × 96px，白 4% 几何，仅示意层级） -->
  <g fill="#FFFFFF" fill-opacity="0.04">
    <rect x="72"  y="512" width="88" height="88" rx="14"/><rect x="168" y="512" width="88" height="88" rx="14"/><rect x="264" y="512" width="88" height="88" rx="14"/><rect x="360" y="512" width="88" height="88" rx="14"/><rect x="456" y="512" width="88" height="88" rx="14"/><rect x="552" y="512" width="88" height="88" rx="14"/>
    <rect x="72"  y="608" width="88" height="88" rx="14"/><rect x="168" y="608" width="88" height="88" rx="14"/><rect x="264" y="608" width="88" height="88" rx="14"/><rect x="360" y="608" width="88" height="88" rx="14"/><rect x="456" y="608" width="88" height="88" rx="14"/><rect x="552" y="608" width="88" height="88" rx="14"/>
    <rect x="72"  y="704" width="88" height="88" rx="14"/><rect x="168" y="704" width="88" height="88" rx="14"/><rect x="264" y="704" width="88" height="88" rx="14"/><rect x="360" y="704" width="88" height="88" rx="14"/><rect x="456" y="704" width="88" height="88" rx="14"/><rect x="552" y="704" width="88" height="88" rx="14"/>
    <rect x="72"  y="800" width="88" height="88" rx="14"/><rect x="168" y="800" width="88" height="88" rx="14"/><rect x="264" y="800" width="88" height="88" rx="14"/><rect x="360" y="800" width="88" height="88" rx="14"/><rect x="456" y="800" width="88" height="88" rx="14"/><rect x="552" y="800" width="88" height="88" rx="14"/>
  </g>

  <!-- 遮罩底 scrim = Color(0.065,0.055,0.12,0.9)（StartOverlay 同 Overlay 同源） -->
  <rect width="720" height="1280" fill="#110E1F" fill-opacity="0.9"/>

  <!-- L1 标题 · 金 Color(1,0.85,0.35) · 56px · anchor_y 0.33 -->
  <text x="360" y="443" text-anchor="middle" font-family="Noto Sans SC, PingFang SC, sans-serif"
        font-size="56" font-weight="700" fill="#FFD759">RESUME LEVEL 2</text>

  <!-- L2 副标题 · 白 70% · 17px · anchor_y 0.42（含恢复进度行） -->
  <text x="360" y="547" text-anchor="middle" font-family="Noto Sans SC, PingFang SC, sans-serif"
        font-size="17" fill="#FFFFFF" fill-opacity="0.7">SCORE 340 · TAP CONTINUE OR NEW</text>

  <!-- L3 主按钮（继续）· 320×110 · 金底深紫字 · primary · anchor_y 0.52 -->
  <g>
    <rect x="200" y="666" width="320" height="110" rx="14" fill="#FFD759"/>
    <text x="360" y="733" text-anchor="middle" font-family="Noto Sans SC, PingFang SC, sans-serif"
          font-size="30" font-weight="700" fill="#211D3D">继续游戏 CONTINUE</text>
  </g>

  <!-- L4 次按钮（新开）· 320×96（热区 ≥96，原 60 已修正）· 金描边幽灵样式 · ghost -->
  <g>
    <rect x="200" y="788" width="320" height="96" rx="14" fill="#FFFFFF" fill-opacity="0"
          stroke="#FFD759" stroke-width="2"/>
    <text x="360" y="847" text-anchor="middle" font-family="Noto Sans SC, PingFang SC, sans-serif"
          font-size="22" fill="#FFD759">新的一局 NEW GAME</text>
  </g>

  <!-- 主次按钮间距 12px（788 − 776） -->

  <!-- 稿面标注（不入运行时） -->
  <text x="360" y="1244" text-anchor="middle" font-family="Noto Sans SC, monospace"
        font-size="13" fill="#FFFFFF" fill-opacity="0.35">settlement-three-state · l1-e3 RESUME · mockup 720×1280 · not a runtime asset</text>
</svg>
